<mxfile host="app.diagrams.net" modified="2023-06-01T14:51:27.544Z" agent="Mozilla/5.0 (Windows NT 10.0; Win64; x64) AppleWebKit/537.36 (KHTML, like Gecko) Chrome/113.0.0.0 Safari/537.36" version="21.3.6" etag="ySUK2-wq5KpGP9AxAnlF" type="github">
  <diagram name="PÃ¡gina-1" id="2XJ11y71RnSnecjkE2sb">
    <mxGraphModel>
      <root>
        <mxCell id="0" />
        <mxCell id="1" parent="0" />
      </root>
    </mxGraphModel>
  </diagram>
</mxfile>
